<svg data-v-423bf9ae="" xmlns="http://www.w3.org/2000/svg" viewBox="0 0 6439.845171213647 5276" class="iconAbove"><!----><!----><!----><g data-v-423bf9ae="" id="ed28edb6-130e-41e1-8e1e-eececc3dcd68" fill="white" transform="matrix(5.725191089769513,0,0,5.725191089769513,3026.633090720926,5199.351398285157)"><path d="M2.49 8.76L7.70 8.76C7.87 8.76 7.92 8.71 7.92 8.54L7.92 8.02C7.92 7.85 7.87 7.80 7.70 7.80L2.49 7.80L2.49 4.40L7.83 4.40C7.98 4.40 8.05 4.34 8.05 4.17L8.05 3.65C8.05 3.49 7.99 3.43 7.83 3.43L1.61 3.43C1.44 3.43 1.39 3.49 1.39 3.65L1.39 13.01C1.39 13.17 1.44 13.23 1.61 13.23L2.28 13.23C2.44 13.23 2.49 13.17 2.49 13.01ZM14.78 13.01C14.85 13.17 14.91 13.23 15.02 13.23L15.37 13.23C15.53 13.23 15.58 13.17 15.58 13.01L15.58 9.80L15.58 6.33C15.58 6.16 15.53 6.10 15.37 6.10L14.74 6.10C14.59 6.10 14.53 6.16 14.53 6.33L14.53 9.86C14.53 11.26 13.75 12.43 12.53 12.43C11.40 12.43 10.56 11.62 10.56 9.95L10.56 6.33C10.56 6.16 10.50 6.10 10.35 6.10L9.72 6.10C9.56 6.10 9.51 6.16 9.51 6.33L9.51 10.23C9.51 12.47 10.78 13.38 12.28 13.38C13.65 13.38 14.38 12.31 14.67 11.75ZM18.41 13.01C18.41 13.17 18.47 13.23 18.63 13.23L19.25 13.23C19.42 13.23 19.46 13.17 19.46 13.01L19.46 3.12C19.46 2.95 19.42 2.90 19.25 2.90L18.63 2.90C18.47 2.90 18.41 2.95 18.41 3.12ZM22.34 13.01C22.34 13.17 22.40 13.23 22.57 13.23L23.18 13.23C23.35 13.23 23.39 13.17 23.39 13.01L23.39 3.12C23.39 2.95 23.35 2.90 23.18 2.90L22.57 2.90C22.40 2.90 22.34 2.95 22.34 3.12ZM32.97 4.26C33.95 4.26 34.87 4.58 35.77 5.18C35.91 5.29 35.99 5.24 36.08 5.08L36.34 4.65C36.40 4.51 36.43 4.42 36.27 4.34C35.21 3.70 34.27 3.28 32.83 3.28C30.11 3.28 29.30 5.12 29.30 6.20C29.30 8.06 31.08 8.53 32.61 8.74C34.44 8.99 35.49 9.37 35.49 10.53C35.49 11.98 34.15 12.40 32.86 12.40C31.81 12.40 30.65 12.08 29.75 11.47C29.58 11.37 29.53 11.40 29.43 11.55L29.16 12.00C29.08 12.15 29.08 12.22 29.22 12.31C30.28 13.05 31.51 13.38 33.00 13.38C35.41 13.38 36.57 11.98 36.57 10.49C36.57 8.61 35.03 8.05 33.22 7.81C31.68 7.62 30.38 7.32 30.38 6.17C30.38 5.45 30.84 4.26 32.97 4.26ZM42.76 13.05C42.88 12.98 42.90 12.92 42.85 12.78L42.77 12.33C42.71 12.14 42.67 12.12 42.49 12.22C42.14 12.40 41.92 12.43 41.52 12.43C40.40 12.43 39.91 11.83 39.91 10.19L39.91 6.97L42.45 6.97C42.62 6.97 42.66 6.92 42.66 6.75L42.66 6.33C42.66 6.15 42.60 6.10 42.45 6.10L39.91 6.10L39.91 4.66C39.91 4.49 39.87 4.44 39.70 4.44L39.09 4.44C38.92 4.44 38.88 4.49 38.88 4.66L38.88 6.10L38.19 6.10C38.02 6.10 37.97 6.15 37.97 6.33L37.97 6.75C37.97 6.92 38.02 6.97 38.19 6.97L38.88 6.97L38.88 10.28C38.88 12.22 39.56 13.38 41.41 13.38C41.59 13.38 42.20 13.38 42.76 13.05ZM45.12 7.10C45.65 7 46.38 6.87 47.28 6.87C48.75 6.87 49.27 7.52 49.27 9.28C48.55 8.99 47.74 8.79 47.00 8.79C45.28 8.79 44.13 9.53 44.13 11.06C44.13 12.56 45.28 13.38 46.62 13.38C48.13 13.38 49.06 12.57 49.43 12.05L49.49 13.01C49.53 13.17 49.59 13.23 49.70 13.23L50.11 13.23C50.26 13.23 50.32 13.17 50.32 13.01L50.32 9.31C50.32 7 49.67 5.95 47.32 5.95C46.24 5.95 45.08 6.16 44.91 6.20C44.74 6.26 44.70 6.33 44.74 6.48L44.86 6.90C44.90 7.07 44.94 7.14 45.12 7.10ZM47.21 9.58C48.01 9.58 48.55 9.79 49.27 10.08L49.27 11.24C48.82 11.90 47.91 12.56 46.94 12.56C45.81 12.56 45.18 11.93 45.18 11.06C45.18 10.11 45.88 9.58 47.21 9.58ZM55.66 12.43C54.19 12.43 53.02 11.23 53.02 9.67C53.02 8.13 54.19 6.90 55.66 6.90C56.43 6.90 57.13 7.21 57.61 7.69C57.72 7.80 57.81 7.77 57.90 7.64L58.24 7.29C58.35 7.17 58.35 7.10 58.24 7C57.53 6.29 56.62 5.95 55.65 5.95C53.61 5.95 51.98 7.63 51.98 9.67C51.98 11.72 53.61 13.38 55.65 13.38C56.62 13.38 57.53 13.05 58.24 12.33C58.35 12.24 58.35 12.17 58.24 12.04L57.90 11.69C57.81 11.56 57.72 11.54 57.61 11.65C57.13 12.12 56.43 12.43 55.66 12.43ZM62.36 9.45L65.86 6.33C65.97 6.22 65.93 6.10 65.79 6.10L64.90 6.10C64.75 6.10 64.68 6.16 64.54 6.33L61.29 9.24L61.29 3.12C61.29 2.95 61.25 2.90 61.07 2.90L60.47 2.90C60.30 2.90 60.24 2.95 60.24 3.12L60.24 13.01C60.24 13.17 60.30 13.23 60.47 13.23L61.07 13.23C61.24 13.23 61.29 13.17 61.29 13.01L61.29 9.73L64.72 13.01C64.86 13.17 64.93 13.23 65.09 13.23L65.98 13.23C66.11 13.23 66.21 13.17 66.05 13.01Z"></path></g><!----><g data-v-423bf9ae="" id="eae9df51-4dff-41b2-83f6-6558af4083c3" transform="matrix(7.603328450520833,0,0,7.603328450520833,-541.759138693164,-1189.981510793542)" stroke="none" fill="white"><path d="M494.542 444.057l-72.515-72.514v19.799l72.515-72.515c12.778-12.778-7.021-32.577-19.799-19.799l-72.515 72.515c-5.394 5.394-5.394 14.405 0 19.799l72.515 72.514c12.778 12.778 32.577-7.021 19.799-19.799zM674.145 463.856l72.514-72.514c5.394-5.394 5.394-14.405 0-19.799l-72.514-72.515c-12.778-12.778-32.577 7.021-19.799 19.799l72.514 72.515v-19.799l-72.514 72.514c-12.779 12.778 7.02 32.577 19.799 19.799zM552.563 493.5l44.294-135.63c8.821-27.014 17.644-54.027 26.466-81.041 2.369-7.255-2.685-15.27-9.778-17.222-7.619-2.096-14.854 2.531-17.222 9.778l-44.294 135.63c-8.821 27.014-17.644 54.027-26.466 81.041-2.369 7.255 2.685 15.271 9.778 17.222 7.62 2.096 14.855-2.53 17.222-9.778z"></path><path d="M258.608 410.069V260.668v-32.047-6.65c0-2.007.11-4.002.299-6.001-.277 2.93.327-1.415.377-1.663.27-1.319.645-2.614 1.019-3.906.371-1.282.842-2.531 1.313-3.778-.942 2.498 1.146-2.164 1.396-2.632.62-1.158 1.328-2.266 2.034-3.372.116-.181 2.664-3.604.904-1.387 1.625-2.047 3.479-3.901 5.393-5.674.158-.147 3.478-2.813 1.218-1.111 1.047-.788 2.153-1.495 3.256-2.2 1.108-.708 2.27-1.329 3.428-1.949.782-.405 1.573-.79 2.375-1.154-1.316.54-1.203.509.341-.091 2.517-.95 5.137-1.595 7.768-2.134 4.295-.879-2.702.182 1.709-.236 1.39-.131 2.789-.15 4.184-.169.133-.002.266 0 .399 0h555.892c.919 0 1.835.006 2.754.019 1.389.019 2.772.149 4.154.28-2.93-.277 1.415.327 1.663.377 2.627.538 5.18 1.386 7.685 2.332-2.667-1.006 1.259.668 1.471.775 1.176.59 2.304 1.271 3.429 1.949 1.122.677 2.19 1.439 3.256 2.2-2.144-1.53 1.793 1.644 2.176 1.999.959.888 1.848 1.847 2.734 2.804.146.159 2.813 3.478 1.111 1.218 1.58 2.099 2.911 4.372 4.148 6.685.105.197 1.856 4.125.775 1.471.503 1.235.908 2.508 1.313 3.778.408 1.283.714 2.596 1.019 3.906.193.885.363 1.774.509 2.669-.179-1.463-.18-1.341-.001.369.194 2.048.169 4.109.169 6.164v312.898c0 1.226-.026 1.581-.075 2.803-.009.223-.532 4.7-.093 1.754-.398 2.67-1.115 5.282-1.933 7.85-.066.207-1.683 4.232-.529 1.602-.529 1.208-1.152 2.373-1.774 3.535-.619 1.158-1.327 2.267-2.034 3.372a51.48 51.48 0 01-1.493 2.151c.865-1.102.782-1.022-.249.238-1.676 2.005-3.576 3.811-5.534 5.534-3.161 2.783 2.128-1.439-1.304 1.009-1.067.763-2.192 1.44-3.314 2.118-1.128.68-2.307 1.271-3.483 1.862-3.804 1.91 2.465-.857-1.536.652-2.943 1.111-6.019 1.824-9.109 2.371 2.917-.516-1.516.076-1.754.093a51.38 51.38 0 01-2.802.075H377.744c-7.632 0-14 6.368-14 14s6.368 14 14 14H852.724c36.867 0 65.556-30.252 65.556-66.657v-139.35-162.916-10.937c0-24.211-14.025-47.165-35.684-58.039-14.263-7.16-28.732-7.014-43.987-7.014H295.71c-23.106 0-44.356 12.53-56.223 32.202-11.995 19.884-8.877 45.6-8.877 67.886V410.07c0 7.632 6.368 14 14 14s13.998-6.369 13.998-14.001z"></path><path d="M617.614 587.424v126.655l14-14H517.271l14 14V587.424l-14 14h114.343c7.632 0 14-6.368 14-14s-6.368-14-14-14H517.271c-7.632 0-14 6.368-14 14v126.655c0 7.632 6.368 14 14 14h114.343c7.632 0 14-6.368 14-14V587.424c0-7.632-6.368-14-14-14s-14 6.368-14 14z"></path><path d="M451.954 728.08h264.978c7.632 0 14-6.368 14-14s-6.368-14-14-14H451.954c-7.632 0-14 6.368-14 14s6.368 14 14 14zM381.376 514.506a134.38 134.38 0 01-.312 8.346c-.094 1.373-.24 2.742-.385 4.11-.475 4.465.447-2.726-.245 1.688-.902 5.756-2.368 11.413-4.173 16.948-.412 1.263-.87 2.51-1.327 3.757-.07.19-1.692 4.238-.561 1.565-1.026 2.425-2.182 4.793-3.379 7.137-2.579 5.05-5.635 9.844-8.957 14.433-2.508 3.465 1.677-2.044-.99 1.297-.813 1.018-1.661 2.006-2.508 2.994-1.694 1.975-3.492 3.859-5.321 5.71-1.83 1.852-3.755 3.604-5.71 5.321-.978.859-1.986 1.685-2.994 2.509-1.275 1.012-1.358 1.082-.25.213a113.35 113.35 0 01-2.103 1.542c-4.24 3.07-8.746 5.758-13.376 8.193-2.331 1.226-4.726 2.324-7.137 3.379 2.657-1.161-1.373.488-1.565.562-1.656.631-3.338 1.19-5.023 1.74-5.117 1.669-10.379 2.862-15.682 3.761-4.405.746 2.77-.285-1.688.245-1.367.162-2.739.273-4.111.385-3.242.264-6.497.323-9.748.303-2.777-.018-5.551-.189-8.318-.414a108.28 108.28 0 01-4.096-.436c2.975.354-1.447-.272-1.667-.311-5.735-.972-11.364-2.505-16.868-4.374a109.758 109.758 0 01-3.736-1.371c-4.056-1.545 2.431 1.116-1.536-.618-2.411-1.054-4.762-2.237-7.09-3.462-5.016-2.638-9.771-5.749-14.317-9.124 2.293 1.702-1.096-.905-1.258-1.037a110.254 110.254 0 01-2.963-2.543c-1.956-1.718-3.818-3.538-5.647-5.388-1.83-1.852-3.56-3.799-5.254-5.773-.848-.988-1.661-2.007-2.474-3.024 1.681 2.105-1.415-2.004-1.695-2.4-3.021-4.278-5.657-8.818-8.038-13.48a108.534 108.534 0 01-1.711-3.557c-.089-.192-1.77-4.185-.675-1.507-1.173-2.869-2.17-5.807-3.096-8.765-1.609-5.146-2.739-10.432-3.573-15.754.465 2.966-.156-1.491-.18-1.709-.146-1.372-.24-2.749-.334-4.125-.223-3.25-.243-6.51-.182-9.765.052-2.771.258-5.535.517-8.292.021-.215.608-4.685.18-1.709.193-1.345.437-2.682.681-4.018 1.041-5.714 2.641-11.315 4.574-16.787.441-1.25.928-2.482 1.415-3.715-1.061 2.688.586-1.31.675-1.506 1.082-2.396 2.293-4.731 3.544-7.042 1.246-2.302 2.615-4.536 4.021-6.743.702-1.101 1.443-2.177 2.183-3.252.273-.396 3.353-4.528 1.695-2.4 3.201-4.107 6.76-7.926 10.504-11.54 1.873-1.809 3.84-3.516 5.835-5.188.158-.132 3.533-2.768 1.258-1.038 1.384-1.053 2.812-2.048 4.244-3.035 4.317-2.972 8.891-5.555 13.583-7.881 1.18-.585 2.38-1.127 3.581-1.669 3.946-1.782-2.501.976 1.536-.618 2.887-1.14 5.84-2.103 8.813-2.993 2.573-.77 5.186-1.397 7.807-1.976 1.322-.292 2.653-.534 3.984-.777.217-.04 4.641-.701 1.667-.31 5.966-.785 12-.967 18.009-.78 2.762.086 5.517.327 8.264.618 4.465.475-2.725-.447 1.688.245 1.339.21 2.67.47 4.001.729 5.692 1.11 11.265 2.775 16.704 4.772.19.07 4.239 1.691 1.565.561 1.214.514 2.409 1.071 3.604 1.627 2.381 1.11 4.7 2.348 6.994 3.625 2.286 1.273 4.502 2.667 6.691 4.099 1.092.714 2.159 1.468 3.225 2.22.166.118 3.591 2.702 1.334.942 4.107 3.202 7.926 6.76 11.541 10.504 1.808 1.873 3.516 3.84 5.187 5.835.133.158 2.769 3.533 1.038 1.258.79 1.038 1.542 2.104 2.294 3.168 3.021 4.279 5.657 8.819 8.038 13.48a107.46 107.46 0 011.71 3.557c.09.192 1.77 4.184.675 1.506 1.005 2.458 1.875 4.969 2.697 7.492 1.669 5.118 2.862 10.38 3.761 15.683.747 4.404-.285-2.77.245 1.688.162 1.366.273 2.739.385 4.11.22 2.78.288 5.565.306 8.349.047 7.631 6.333 14 14 14 7.596 0 14.047-6.368 14-14-.298-47.892-28.5-92.968-72.388-112.791-45.518-20.559-98.73-11.909-135.774 21.415-35.979 32.365-49.074 85.57-33.583 131.171 15.851 46.665 57.938 78.639 106.511 83.8 34.612 3.679 69.478-9.159 95.11-32.218 25.629-23.056 39.912-57.114 40.125-91.377.047-7.632-6.404-14-14-14-7.669 0-13.954 6.369-14.001 14z"></path><path d="M499.159 826.812c-.16-46.464-15.271-92.424-43.636-129.321-28.335-36.861-67.548-63.906-112.343-76.664-45.216-12.878-95.142-10.06-138.575 7.885-42.839 17.699-78.958 48.548-102.977 88.243-19.937 32.949-30.192 71.423-30.325 109.857-.026 7.632 6.388 14 14 14H485.158c7.633 0 14.001-6.368 14.001-14s-6.368-14-14-14H85.304l14 14c.019-5.592.248-11.168.691-16.742.219-2.75.522-5.493.854-8.231-.358 2.959.223-1.508.252-1.709.269-1.8.58-3.593.897-5.384 1.958-11.046 4.961-21.893 8.752-32.445 2.236-6.224 2.927-7.721 5.174-12.598 2.392-5.19 5.057-10.251 7.885-15.215 2.6-4.563 5.423-8.996 8.373-13.34a199.392 199.392 0 014.563-6.397c.113-.153 2.737-3.573.987-1.326a200.74 200.74 0 013.282-4.074c6.916-8.414 14.59-16.188 22.771-23.371 7.896-6.932 14.357-11.623 24.597-17.912 4.487-2.755 9.108-5.288 13.798-7.68 2.354-1.2 4.743-2.33 7.143-3.436 1.203-.555 2.416-1.085 3.629-1.615-2.485 1.086 2.338-.943 2.789-1.122 10.39-4.131 21.158-7.271 32.089-9.596a199.98 199.98 0 0112.071-2.138c4.46-.665-2.769.327 1.721-.217 5.971-.723 11.979-1.115 17.989-1.302 5.607-.174 11.22-.059 16.821.231 2.77.144 5.535.372 8.296.63 1.372.128 2.742.284 4.111.44 1.698.216 1.82.224.365.023.904.126 1.807.257 2.709.395 11.135 1.66 22.1 4.377 32.788 7.896a198.976 198.976 0 0111.254 4.128c.18.071 4.208 1.77 1.553.631 5.262 2.257 10.4 4.792 15.446 7.493 4.636 2.481 9.147 5.19 13.572 8.029a200.396 200.396 0 019.712 6.689c.385.279 4.49 3.408 2.38 1.765 8.593 6.694 16.565 14.165 23.958 22.158 3.551 3.839 6.913 7.85 10.153 11.953-1.764-2.234.873 1.173.987 1.326a205.79 205.79 0 012.312 3.176c1.784 2.484 3.486 5.026 5.155 7.59 5.992 9.206 11.127 18.956 15.522 29.018-1.156-2.646.558 1.373.631 1.554a196.134 196.134 0 011.916 4.963c1.092 2.917 2.086 5.869 3.04 8.834 2.062 6.41 3.731 12.942 5.131 19.527.66 3.105 1.214 6.233 1.726 9.367.22 1.351.413 2.705.605 4.06-.394-2.775.273 2.607.327 3.104.743 6.931 1.052 13.902 1.076 20.87.026 7.632 6.349 14 14 14 7.614 0 14.029-6.368 14.002-14z"></path></g><!----></svg>