<svg data-v-423bf9ae="" xmlns="http://www.w3.org/2000/svg" viewBox="0 0 370.663011157626 60" class="font"><!----><!----><!----><g data-v-423bf9ae="" id="75843413-cec2-4003-bd13-70b63914e285" fill="white" transform="matrix(5.725191089769513,0,0,5.725191089769513,-7.9580195085665935,-16.6030542294912)"><path d="M2.49 8.76L7.70 8.76C7.87 8.76 7.92 8.71 7.92 8.54L7.92 8.02C7.92 7.85 7.87 7.80 7.70 7.80L2.49 7.80L2.49 4.40L7.83 4.40C7.98 4.40 8.05 4.34 8.05 4.17L8.05 3.65C8.05 3.49 7.99 3.43 7.83 3.43L1.61 3.43C1.44 3.43 1.39 3.49 1.39 3.65L1.39 13.01C1.39 13.17 1.44 13.23 1.61 13.23L2.28 13.23C2.44 13.23 2.49 13.17 2.49 13.01ZM14.78 13.01C14.85 13.17 14.91 13.23 15.02 13.23L15.37 13.23C15.53 13.23 15.58 13.17 15.58 13.01L15.58 9.80L15.58 6.33C15.58 6.16 15.53 6.10 15.37 6.10L14.74 6.10C14.59 6.10 14.53 6.16 14.53 6.33L14.53 9.86C14.53 11.26 13.75 12.43 12.53 12.43C11.40 12.43 10.56 11.62 10.56 9.95L10.56 6.33C10.56 6.16 10.50 6.10 10.35 6.10L9.72 6.10C9.56 6.10 9.51 6.16 9.51 6.33L9.51 10.23C9.51 12.47 10.78 13.38 12.28 13.38C13.65 13.38 14.38 12.31 14.67 11.75ZM18.41 13.01C18.41 13.17 18.47 13.23 18.63 13.23L19.25 13.23C19.42 13.23 19.46 13.17 19.46 13.01L19.46 3.12C19.46 2.95 19.42 2.90 19.25 2.90L18.63 2.90C18.47 2.90 18.41 2.95 18.41 3.12ZM22.34 13.01C22.34 13.17 22.40 13.23 22.57 13.23L23.18 13.23C23.35 13.23 23.39 13.17 23.39 13.01L23.39 3.12C23.39 2.95 23.35 2.90 23.18 2.90L22.57 2.90C22.40 2.90 22.34 2.95 22.34 3.12ZM32.97 4.26C33.95 4.26 34.87 4.58 35.77 5.18C35.91 5.29 35.99 5.24 36.08 5.08L36.34 4.65C36.40 4.51 36.43 4.42 36.27 4.34C35.21 3.70 34.27 3.28 32.83 3.28C30.11 3.28 29.30 5.12 29.30 6.20C29.30 8.06 31.08 8.53 32.61 8.74C34.44 8.99 35.49 9.37 35.49 10.53C35.49 11.98 34.15 12.40 32.86 12.40C31.81 12.40 30.65 12.08 29.75 11.47C29.58 11.37 29.53 11.40 29.43 11.55L29.16 12.00C29.08 12.15 29.08 12.22 29.22 12.31C30.28 13.05 31.51 13.38 33.00 13.38C35.41 13.38 36.57 11.98 36.57 10.49C36.57 8.61 35.03 8.05 33.22 7.81C31.68 7.62 30.38 7.32 30.38 6.17C30.38 5.45 30.84 4.26 32.97 4.26ZM42.76 13.05C42.88 12.98 42.90 12.92 42.85 12.78L42.77 12.33C42.71 12.14 42.67 12.12 42.49 12.22C42.14 12.40 41.92 12.43 41.52 12.43C40.40 12.43 39.91 11.83 39.91 10.19L39.91 6.97L42.45 6.97C42.62 6.97 42.66 6.92 42.66 6.75L42.66 6.33C42.66 6.15 42.60 6.10 42.45 6.10L39.91 6.10L39.91 4.66C39.91 4.49 39.87 4.44 39.70 4.44L39.09 4.44C38.92 4.44 38.88 4.49 38.88 4.66L38.88 6.10L38.19 6.10C38.02 6.10 37.97 6.15 37.97 6.33L37.97 6.75C37.97 6.92 38.02 6.97 38.19 6.97L38.88 6.97L38.88 10.28C38.88 12.22 39.56 13.38 41.41 13.38C41.59 13.38 42.20 13.38 42.76 13.05ZM45.12 7.10C45.65 7 46.38 6.87 47.28 6.87C48.75 6.87 49.27 7.52 49.27 9.28C48.55 8.99 47.74 8.79 47.00 8.79C45.28 8.79 44.13 9.53 44.13 11.06C44.13 12.56 45.28 13.38 46.62 13.38C48.13 13.38 49.06 12.57 49.43 12.05L49.49 13.01C49.53 13.17 49.59 13.23 49.70 13.23L50.11 13.23C50.26 13.23 50.32 13.17 50.32 13.01L50.32 9.31C50.32 7 49.67 5.95 47.32 5.95C46.24 5.95 45.08 6.16 44.91 6.20C44.74 6.26 44.70 6.33 44.74 6.48L44.86 6.90C44.90 7.07 44.94 7.14 45.12 7.10ZM47.21 9.58C48.01 9.58 48.55 9.79 49.27 10.08L49.27 11.24C48.82 11.90 47.91 12.56 46.94 12.56C45.81 12.56 45.18 11.93 45.18 11.06C45.18 10.11 45.88 9.58 47.21 9.58ZM55.66 12.43C54.19 12.43 53.02 11.23 53.02 9.67C53.02 8.13 54.19 6.90 55.66 6.90C56.43 6.90 57.13 7.21 57.61 7.69C57.72 7.80 57.81 7.77 57.90 7.64L58.24 7.29C58.35 7.17 58.35 7.10 58.24 7C57.53 6.29 56.62 5.95 55.65 5.95C53.61 5.95 51.98 7.63 51.98 9.67C51.98 11.72 53.61 13.38 55.65 13.38C56.62 13.38 57.53 13.05 58.24 12.33C58.35 12.24 58.35 12.17 58.24 12.04L57.90 11.69C57.81 11.56 57.72 11.54 57.61 11.65C57.13 12.12 56.43 12.43 55.66 12.43ZM62.36 9.45L65.86 6.33C65.97 6.22 65.93 6.10 65.79 6.10L64.90 6.10C64.75 6.10 64.68 6.16 64.54 6.33L61.29 9.24L61.29 3.12C61.29 2.95 61.25 2.90 61.07 2.90L60.47 2.90C60.30 2.90 60.24 2.95 60.24 3.12L60.24 13.01C60.24 13.17 60.30 13.23 60.47 13.23L61.07 13.23C61.24 13.23 61.29 13.17 61.29 13.01L61.29 9.73L64.72 13.01C64.86 13.17 64.93 13.23 65.09 13.23L65.98 13.23C66.11 13.23 66.21 13.17 66.05 13.01Z"></path></g><!----><!----></svg>